<svg xmlns="http://www.w3.org/2000/svg" xmlns:xlink="http://www.w3.org/1999/xlink" viewBox="967 1368 84 84"><defs xmlns="http://www.w3.org/2000/svg"><style>
      .st0 {
        fill: none;
      }

      .st1 {
        fill: #7a7a7a;
      }

      .st2 {
        fill: #47b86a;
      }

      .st3 {
        clip-path: url(#clippath-17);
      }

      .st4 {
        clip-path: url(#clippath-19);
      }

      .st5 {
        clip-path: url(#clippath-11);
      }

      .st6 {
        clip-path: url(#clippath-16);
      }

      .st7 {
        clip-path: url(#clippath-18);
      }

      .st8 {
        clip-path: url(#clippath-10);
      }

      .st9 {
        clip-path: url(#clippath-15);
      }

      .st10 {
        clip-path: url(#clippath-13);
      }

      .st11 {
        clip-path: url(#clippath-14);
      }

      .st12 {
        clip-path: url(#clippath-12);
      }

      .st13 {
        clip-path: url(#clippath-1);
      }

      .st14 {
        clip-path: url(#clippath-3);
      }

      .st15 {
        clip-path: url(#clippath-4);
      }

      .st16 {
        clip-path: url(#clippath-2);
      }

      .st17 {
        clip-path: url(#clippath-7);
      }

      .st18 {
        clip-path: url(#clippath-6);
      }

      .st19 {
        clip-path: url(#clippath-9);
      }

      .st20 {
        clip-path: url(#clippath-8);
      }

      .st21 {
        clip-path: url(#clippath-5);
      }

      .st22 {
        clip-path: url(#clippath);
      }
    </style><clipPath id="clippath"><rect class="st0" x="325.39" y="151.21" width="72" height="72" /></clipPath><clipPath id="clippath-1"><rect class="st0" x="109.39" y="151.21" width="72" height="72" /></clipPath><clipPath id="clippath-2"><rect class="st0" x="757.39" y="151.21" width="72" height="72" /></clipPath><clipPath id="clippath-3"><rect class="st0" x="973.39" y="151.21" width="72" height="72" /></clipPath><clipPath id="clippath-4"><rect class="st0" x="541.39" y="151.21" width="72" height="72" /></clipPath><clipPath id="clippath-5"><rect class="st0" x="541.39" y="348.43" width="72" height="72" /></clipPath><clipPath id="clippath-6"><rect class="st0" x="973.39" y="348.43" width="72" height="72" /></clipPath><clipPath id="clippath-7"><rect class="st0" x="109.39" y="348.43" width="72" height="72" /></clipPath><clipPath id="clippath-8"><rect class="st0" x="757.39" y="348.43" width="72" height="72" /></clipPath><clipPath id="clippath-9"><rect class="st0" x="325.39" y="348.43" width="72" height="72" /></clipPath><clipPath id="clippath-10"><rect class="st0" x="102.52" y="1121.03" width="72" height="72" /></clipPath><clipPath id="clippath-11"><rect class="st0" x="102.52" y="1352.03" width="72" height="72" /></clipPath><clipPath id="clippath-12"><rect class="st0" x="102.52" y="659.03" width="72" height="72" /></clipPath><clipPath id="clippath-13"><rect class="st0" x="102.52" y="890.03" width="72" height="72" /></clipPath><clipPath id="clippath-14"><rect class="st0" x="325.39" y="1138.02" width="72" height="72" /></clipPath><clipPath id="clippath-15"><rect class="st0" x="325.39" y="1369.02" width="69.93" height="72" /></clipPath><clipPath id="clippath-16"><rect class="st0" x="325.39" y="676.02" width="72" height="72" /></clipPath><clipPath id="clippath-17"><rect class="st0" x="325.39" y="907.02" width="72" height="72" /></clipPath><clipPath id="clippath-18"><rect class="st0" x="1615.58" y="1410.81" width="72" height="72" /></clipPath><clipPath id="clippath-19"><rect class="st0" x="1800.53" y="1410.45" width="72" height="72" /></clipPath></defs><path class="st2" d="M1045.35,1407.56l.04,4.34-.12.41-.15,1.86c-.7,5.73-2.68,11.15-6.04,15.88l-5.49-14.32,1.91-6.34-2.5-11.73-4.12.88,2.27,10.69-1.21,4.01-6.89-1.86-1.09,4.07,7.81,2.11,6.26,16.31c-3.19,3.5-7.03,6.31-11.27,8.36l-8.82-11.41.64-13.65-4.21-.2-.24,5.42-6.04-1.32-.73-13.32-4.21.22.9,16.53,9.87,2.15-.25,5.53,9.01,11.65c-2.64.91-5.29,1.44-8.04,1.69l-.71.13-4.76-.05c-13.33-1.11-25.14-8.92-30.63-21.3l14.72-1.45,1.71,4.77,3.96-1.42-2.8-7.87-19.1,1.88c-1.28-3.99-1.85-8.42-1.56-12.63.83-11.48,6.71-22.05,16.5-28.24l12.31,14.73-6.51,5.65-4.59-4.58-2.98,2.97,4.38,4.38-2.37,2.08-.31,7.07,4.2.19.25-5.28,11.41-9.92,10.14,2.67v7.1s4.22,0,4.22,0v-10.35s-13.73-3.62-13.73-3.62l-12.69-15.19c4.25-2.13,8.65-3.15,13.22-3.53,1.69-.08,3.27-.08,4.96,0,5.21.43,10.22,1.72,14.85,4.34l-6.26,6.97h-8.08v4.22h9.94l8.03-8.93c9.28,6.79,14.13,15.99,15,27.24h0Z" xmlns="http://www.w3.org/2000/svg" /></svg>