<svg xmlns="http://www.w3.org/2000/svg" xmlns:xlink="http://www.w3.org/1999/xlink" viewBox="1795 715 78 78"><defs xmlns="http://www.w3.org/2000/svg"><style>
      .st0 {
        fill: none;
      }

      .st1 {
        fill: #7a7a7a;
      }

      .st2 {
        fill: #47b86a;
      }

      .st3 {
        clip-path: url(#clippath-17);
      }

      .st4 {
        clip-path: url(#clippath-19);
      }

      .st5 {
        clip-path: url(#clippath-11);
      }

      .st6 {
        clip-path: url(#clippath-16);
      }

      .st7 {
        clip-path: url(#clippath-18);
      }

      .st8 {
        clip-path: url(#clippath-10);
      }

      .st9 {
        clip-path: url(#clippath-15);
      }

      .st10 {
        clip-path: url(#clippath-13);
      }

      .st11 {
        clip-path: url(#clippath-14);
      }

      .st12 {
        clip-path: url(#clippath-12);
      }

      .st13 {
        clip-path: url(#clippath-1);
      }

      .st14 {
        clip-path: url(#clippath-3);
      }

      .st15 {
        clip-path: url(#clippath-4);
      }

      .st16 {
        clip-path: url(#clippath-2);
      }

      .st17 {
        clip-path: url(#clippath-7);
      }

      .st18 {
        clip-path: url(#clippath-6);
      }

      .st19 {
        clip-path: url(#clippath-9);
      }

      .st20 {
        clip-path: url(#clippath-8);
      }

      .st21 {
        clip-path: url(#clippath-5);
      }

      .st22 {
        clip-path: url(#clippath);
      }
    </style><clipPath id="clippath"><rect class="st0" x="325.39" y="151.21" width="72" height="72" /></clipPath><clipPath id="clippath-1"><rect class="st0" x="109.39" y="151.21" width="72" height="72" /></clipPath><clipPath id="clippath-2"><rect class="st0" x="757.39" y="151.21" width="72" height="72" /></clipPath><clipPath id="clippath-3"><rect class="st0" x="973.39" y="151.21" width="72" height="72" /></clipPath><clipPath id="clippath-4"><rect class="st0" x="541.39" y="151.21" width="72" height="72" /></clipPath><clipPath id="clippath-5"><rect class="st0" x="541.39" y="348.43" width="72" height="72" /></clipPath><clipPath id="clippath-6"><rect class="st0" x="973.39" y="348.43" width="72" height="72" /></clipPath><clipPath id="clippath-7"><rect class="st0" x="109.39" y="348.43" width="72" height="72" /></clipPath><clipPath id="clippath-8"><rect class="st0" x="757.39" y="348.43" width="72" height="72" /></clipPath><clipPath id="clippath-9"><rect class="st0" x="325.39" y="348.43" width="72" height="72" /></clipPath><clipPath id="clippath-10"><rect class="st0" x="102.52" y="1121.03" width="72" height="72" /></clipPath><clipPath id="clippath-11"><rect class="st0" x="102.52" y="1352.03" width="72" height="72" /></clipPath><clipPath id="clippath-12"><rect class="st0" x="102.52" y="659.03" width="72" height="72" /></clipPath><clipPath id="clippath-13"><rect class="st0" x="102.52" y="890.03" width="72" height="72" /></clipPath><clipPath id="clippath-14"><rect class="st0" x="325.39" y="1138.02" width="72" height="72" /></clipPath><clipPath id="clippath-15"><rect class="st0" x="325.39" y="1369.02" width="69.93" height="72" /></clipPath><clipPath id="clippath-16"><rect class="st0" x="325.39" y="676.02" width="72" height="72" /></clipPath><clipPath id="clippath-17"><rect class="st0" x="325.39" y="907.02" width="72" height="72" /></clipPath><clipPath id="clippath-18"><rect class="st0" x="1615.58" y="1410.81" width="72" height="72" /></clipPath><clipPath id="clippath-19"><rect class="st0" x="1800.53" y="1410.45" width="72" height="72" /></clipPath></defs><g xmlns="http://www.w3.org/2000/svg"><path class="st2" d="M1866.63,764.09l.03.76-11,2.4c-4.88.99-9.18,3.43-12.61,7.01l-5.86,5.73h-7.12l-5.99-5.87c-3.33-3.43-7.46-5.78-12.16-6.81l-11.32-2.46c.12-1.65.28-3.2.55-4.73,21.42,5.16,43.63,5.14,64.97,0l.44,3.04c0,.35.02.67.08.92Z" /><path class="st2" d="M1827.3,786.51h-24.41l-1.64-11.34-.59-6.35,10.15,2.19c4.07.88,7.54,2.88,10.49,5.78l6.05,5.95-.03,3.77Z" /><path class="st2" d="M1864.36,786.51h-24.41l-.04-3.77,7-6.81c2.43-2.36,5.47-3.99,8.8-4.71l10.8-2.36c.06.75,0,1.48-.07,2.34-.5,5.18-1.23,10.26-2.07,15.33Z" /><path class="st2" d="M1865.21,756.38c-20.83,5-42.34,5-63.17,0,1.1-3.78,2.81-7.28,4.99-10.59l6.37-9.45-2.82-15.82h46.07l-2.82,15.81,6.38,9.46c2.17,3.32,3.89,6.82,5,10.6h0ZM1835.56,740.08v-3.87h-3.87v3.87h3.87ZM1856.09,753.33l-.67-3.8c-14.46,2.53-29.11,2.53-43.58,0l-.66,3.81c14.94,2.62,30.08,2.61,44.91,0h0Z" /></g></svg>