<svg xmlns="http://www.w3.org/2000/svg" xmlns:xlink="http://www.w3.org/1999/xlink" viewBox="976 342 66 84"><defs xmlns="http://www.w3.org/2000/svg"><style>
      .st0 {
        fill: none;
      }

      .st1 {
        fill: #7a7a7a;
      }

      .st2 {
        fill: #47b86a;
      }

      .st3 {
        clip-path: url(#clippath-17);
      }

      .st4 {
        clip-path: url(#clippath-19);
      }

      .st5 {
        clip-path: url(#clippath-11);
      }

      .st6 {
        clip-path: url(#clippath-16);
      }

      .st7 {
        clip-path: url(#clippath-18);
      }

      .st8 {
        clip-path: url(#clippath-10);
      }

      .st9 {
        clip-path: url(#clippath-15);
      }

      .st10 {
        clip-path: url(#clippath-13);
      }

      .st11 {
        clip-path: url(#clippath-14);
      }

      .st12 {
        clip-path: url(#clippath-12);
      }

      .st13 {
        clip-path: url(#clippath-1);
      }

      .st14 {
        clip-path: url(#clippath-3);
      }

      .st15 {
        clip-path: url(#clippath-4);
      }

      .st16 {
        clip-path: url(#clippath-2);
      }

      .st17 {
        clip-path: url(#clippath-7);
      }

      .st18 {
        clip-path: url(#clippath-6);
      }

      .st19 {
        clip-path: url(#clippath-9);
      }

      .st20 {
        clip-path: url(#clippath-8);
      }

      .st21 {
        clip-path: url(#clippath-5);
      }

      .st22 {
        clip-path: url(#clippath);
      }
    </style><clipPath id="clippath"><rect class="st0" x="325.39" y="151.21" width="72" height="72" /></clipPath><clipPath id="clippath-1"><rect class="st0" x="109.39" y="151.21" width="72" height="72" /></clipPath><clipPath id="clippath-2"><rect class="st0" x="757.39" y="151.21" width="72" height="72" /></clipPath><clipPath id="clippath-3"><rect class="st0" x="973.39" y="151.21" width="72" height="72" /></clipPath><clipPath id="clippath-4"><rect class="st0" x="541.39" y="151.21" width="72" height="72" /></clipPath><clipPath id="clippath-5"><rect class="st0" x="541.39" y="348.43" width="72" height="72" /></clipPath><clipPath id="clippath-6"><rect class="st0" x="973.39" y="348.43" width="72" height="72" /></clipPath><clipPath id="clippath-7"><rect class="st0" x="109.39" y="348.43" width="72" height="72" /></clipPath><clipPath id="clippath-8"><rect class="st0" x="757.39" y="348.43" width="72" height="72" /></clipPath><clipPath id="clippath-9"><rect class="st0" x="325.39" y="348.43" width="72" height="72" /></clipPath><clipPath id="clippath-10"><rect class="st0" x="102.52" y="1121.03" width="72" height="72" /></clipPath><clipPath id="clippath-11"><rect class="st0" x="102.52" y="1352.03" width="72" height="72" /></clipPath><clipPath id="clippath-12"><rect class="st0" x="102.52" y="659.03" width="72" height="72" /></clipPath><clipPath id="clippath-13"><rect class="st0" x="102.52" y="890.03" width="72" height="72" /></clipPath><clipPath id="clippath-14"><rect class="st0" x="325.39" y="1138.02" width="72" height="72" /></clipPath><clipPath id="clippath-15"><rect class="st0" x="325.39" y="1369.02" width="69.93" height="72" /></clipPath><clipPath id="clippath-16"><rect class="st0" x="325.39" y="676.02" width="72" height="72" /></clipPath><clipPath id="clippath-17"><rect class="st0" x="325.39" y="907.02" width="72" height="72" /></clipPath><clipPath id="clippath-18"><rect class="st0" x="1615.58" y="1410.81" width="72" height="72" /></clipPath><clipPath id="clippath-19"><rect class="st0" x="1800.53" y="1410.45" width="72" height="72" /></clipPath></defs><g class="st18" xmlns="http://www.w3.org/2000/svg"><g><path class="st1" d="M1036.39,420.43h-6v-15.13c0-2.35-.94-4.61-2.6-6.27-1.66-1.66-3.92-2.6-6.27-2.6h-24.26c-2.35,0-4.61.94-6.27,2.6-1.66,1.66-2.6,3.92-2.6,6.27v15.13h-6v-15.13c0-3.94,1.57-7.72,4.36-10.51,2.79-2.79,6.57-4.36,10.51-4.36h24.26c3.94,0,7.72,1.57,10.51,4.36,2.79,2.79,4.36,6.57,4.36,10.51v15.13Z" /><path class="st1" d="M1009.39,384.43c-3.56,0-7.04-1.06-10-3.03-2.96-1.98-5.27-4.79-6.63-8.08-1.36-3.29-1.72-6.91-1.03-10.4.7-3.49,2.41-6.7,4.93-9.22,2.52-2.52,5.73-4.23,9.22-4.93,3.49-.69,7.11-.34,10.4,1.02,3.29,1.36,6.1,3.67,8.08,6.63,1.98,2.96,3.03,6.44,3.03,10,0,4.77-1.9,9.35-5.28,12.72-3.38,3.37-7.95,5.27-12.72,5.28ZM1009.39,354.43c-2.37,0-4.7.7-6.67,2.02-1.97,1.32-3.51,3.19-4.42,5.39-.91,2.19-1.15,4.61-.68,6.93.46,2.33,1.61,4.47,3.29,6.14,1.68,1.68,3.82,2.82,6.14,3.28,2.33.46,4.74.23,6.93-.68,2.19-.91,4.06-2.45,5.38-4.42,1.32-1.97,2.02-4.29,2.02-6.67,0-3.18-1.26-6.23-3.52-8.49-2.25-2.25-5.3-3.51-8.48-3.51Z" /></g></g></svg>