<svg xmlns="http://www.w3.org/2000/svg" xmlns:xlink="http://www.w3.org/1999/xlink" viewBox="872 1125 67 81"><defs xmlns="http://www.w3.org/2000/svg"><style>
      .st0 {
        fill: none;
      }

      .st1 {
        fill: #7a7a7a;
      }

      .st2 {
        fill: #47b86a;
      }

      .st3 {
        clip-path: url(#clippath-17);
      }

      .st4 {
        clip-path: url(#clippath-19);
      }

      .st5 {
        clip-path: url(#clippath-11);
      }

      .st6 {
        clip-path: url(#clippath-16);
      }

      .st7 {
        clip-path: url(#clippath-18);
      }

      .st8 {
        clip-path: url(#clippath-10);
      }

      .st9 {
        clip-path: url(#clippath-15);
      }

      .st10 {
        clip-path: url(#clippath-13);
      }

      .st11 {
        clip-path: url(#clippath-14);
      }

      .st12 {
        clip-path: url(#clippath-12);
      }

      .st13 {
        clip-path: url(#clippath-1);
      }

      .st14 {
        clip-path: url(#clippath-3);
      }

      .st15 {
        clip-path: url(#clippath-4);
      }

      .st16 {
        clip-path: url(#clippath-2);
      }

      .st17 {
        clip-path: url(#clippath-7);
      }

      .st18 {
        clip-path: url(#clippath-6);
      }

      .st19 {
        clip-path: url(#clippath-9);
      }

      .st20 {
        clip-path: url(#clippath-8);
      }

      .st21 {
        clip-path: url(#clippath-5);
      }

      .st22 {
        clip-path: url(#clippath);
      }
    </style><clipPath id="clippath"><rect class="st0" x="325.39" y="151.21" width="72" height="72" /></clipPath><clipPath id="clippath-1"><rect class="st0" x="109.39" y="151.21" width="72" height="72" /></clipPath><clipPath id="clippath-2"><rect class="st0" x="757.39" y="151.21" width="72" height="72" /></clipPath><clipPath id="clippath-3"><rect class="st0" x="973.39" y="151.21" width="72" height="72" /></clipPath><clipPath id="clippath-4"><rect class="st0" x="541.39" y="151.21" width="72" height="72" /></clipPath><clipPath id="clippath-5"><rect class="st0" x="541.39" y="348.43" width="72" height="72" /></clipPath><clipPath id="clippath-6"><rect class="st0" x="973.39" y="348.43" width="72" height="72" /></clipPath><clipPath id="clippath-7"><rect class="st0" x="109.39" y="348.43" width="72" height="72" /></clipPath><clipPath id="clippath-8"><rect class="st0" x="757.39" y="348.43" width="72" height="72" /></clipPath><clipPath id="clippath-9"><rect class="st0" x="325.39" y="348.43" width="72" height="72" /></clipPath><clipPath id="clippath-10"><rect class="st0" x="102.52" y="1121.03" width="72" height="72" /></clipPath><clipPath id="clippath-11"><rect class="st0" x="102.52" y="1352.03" width="72" height="72" /></clipPath><clipPath id="clippath-12"><rect class="st0" x="102.52" y="659.03" width="72" height="72" /></clipPath><clipPath id="clippath-13"><rect class="st0" x="102.52" y="890.03" width="72" height="72" /></clipPath><clipPath id="clippath-14"><rect class="st0" x="325.39" y="1138.02" width="72" height="72" /></clipPath><clipPath id="clippath-15"><rect class="st0" x="325.39" y="1369.02" width="69.93" height="72" /></clipPath><clipPath id="clippath-16"><rect class="st0" x="325.39" y="676.02" width="72" height="72" /></clipPath><clipPath id="clippath-17"><rect class="st0" x="325.39" y="907.02" width="72" height="72" /></clipPath><clipPath id="clippath-18"><rect class="st0" x="1615.58" y="1410.81" width="72" height="72" /></clipPath><clipPath id="clippath-19"><rect class="st0" x="1800.53" y="1410.45" width="72" height="72" /></clipPath></defs><g xmlns="http://www.w3.org/2000/svg"><path class="st1" d="M923.17,1199.53h-36.38c-.11-3.03.05-6.05.97-9.02l1.44-4.69c-5.16-4.1-8.49-9.93-9.46-16.42l-2.08-13.95c-.68-4.51,1.72-9,5.96-10.71l11.9-4.8c.87-.32,1.37-1.08,1.37-2.01v-7.41h16.17v7.54c0,.92.63,1.64,1.47,1.91l11.71,4.71c4.28,1.72,6.74,6.2,6.05,10.76l-2.12,14.17c-.96,6.42-4.34,12.15-9.41,16.2l1.4,4.57c.92,3,1.1,6.06.99,9.13h0ZM919.03,1195.49c-.22-2.11-.69-3.91-1.26-5.77l-1.78-5.77c-1.27-4.79-1.24-9.67.24-14.4l1.84-5.85c.65-2.22,1.04-4.41,1.07-6.74h4.04c0,2.96-.55,5.75-1.42,8.56l-1.79,5.75c-1.04,3.33-1.1,6.77-.37,10.25,3.58-3.35,5.89-7.76,6.62-12.64l2.11-14.06c.38-2.98-1.3-5.49-4.01-6.57l-11.63-4.64c-2.21-.98-3.64-3.08-3.64-5.52v-3.51h-8.09v3.37c0,2.53-1.41,4.71-3.74,5.7l-11.54,4.59c-2.71,1.08-4.4,3.6-4.02,6.57l2.15,14.28c.72,4.8,3.08,9.12,6.58,12.41.72-3.44.68-6.84-.34-10.14l-1.85-5.96c-.85-2.77-1.4-5.53-1.39-8.46h4.04c.02,2.33.42,4.52,1.06,6.74l1.84,5.85c1.5,4.78,1.52,9.69.22,14.51l-1.78,5.77c-.57,1.87-1.02,3.71-1.24,5.66h28.1Z" /><path class="st1" d="M896.91,1158.98l-.02-4.04c1.17-.07,1.98-.9,2.03-2.03v-6.06h4.04v5.93c.04,3.35-2.53,6.13-6.05,6.21h0Z" /><path class="st1" d="M913.06,1154.93v4.04c-3.41-.03-6.11-2.79-6.06-6.2v-5.93h4.04v6.06c.06,1.08.77,1.94,2.02,2.03h0Z" /><path class="st1" d="M894.87,1154.93h-4.05s0-4.04,0-4.04h4.04v4.04Z" /><path class="st1" d="M919.13,1154.93h-4.04s0-4.04,0-4.04h4.04v4.04Z" /><path class="st1" d="M898.92,1167.05h-4.04s0-4.04,0-4.04h4.04v4.04Z" /><path class="st1" d="M915.09,1167.05h-4.05s0-4.04,0-4.04h4.04v4.04Z" /><path class="st1" d="M907,1171.1h-4.05s0-4.04,0-4.04h4.04v4.04Z" /><path class="st1" d="M902.96,1179.18h-4.05s0-4.04,0-4.04h4.04s0,4.04,0,4.04Z" /><path class="st1" d="M911.04,1179.18h-4.04s0-4.04,0-4.04h4.04s0,4.04,0,4.04Z" /><path class="st1" d="M907,1187.27h-4.05s0-4.04,0-4.04h4.04v4.04Z" /></g></svg>